# xmcd CD database file generated by Grip 3.3.1
# 
# Track frame offsets:
#       150
#       15989
#       46939
#       65507
#       88958
#       106345
#       126220
#       145761
#       173725
# 
# Disc length: 2540 seconds
# 
# Revision: 2
# Processed by: cddbd v1.5.2PL0 Copyright (c) Steve Scherf et al.
# Submitted via: Grip 3.3.1
# 
DISCID=7209ea09
DTITLE=Jarkko Martikainen - Rakkaus
DYEAR=2006
DGENRE=Country
TTITLE0=Jos mulla menisi todella huonosti
TTITLE1=Rakkaus
TTITLE2=Hyvää yötä, nykyaika
TTITLE3=Terroristin häät
TTITLE4=Normaali katastrofi
TTITLE5=Kainuu opettaa
TTITLE6=Valssi tanssitaidottomille
TTITLE7=Myrsky
TTITLE8=Vanhene kanssamme
EXTD=
EXTT0=
EXTT1=
EXTT2=
EXTT3=
EXTT4=
EXTT5=
EXTT6=
EXTT7=
EXTT8=
PLAYORDER=
